<svg preserveAspectRatio="none" width="100%" height="100%" overflow="visible" style="display: block;" viewBox="0 0 19 20" fill="none" xmlns="http://www.w3.org/2000/svg">
<g id="Vector">
<path fill-rule="evenodd" clip-rule="evenodd" d="M1.8 6.84943L1.8 8.14912C1.8 8.64618 1.39706 9.04912 0.900003 9.04912C0.402947 9.04912 3.82361e-06 8.64618 3.9518e-06 8.14912L4.24745e-06 6.4453C4.77961e-06 5.40923 0.552743 4.45186 1.45001 3.93382L2.64506 3.24386C3.07553 2.99533 3.62596 3.14282 3.87449 3.57328C4.12301 4.00374 3.97553 4.55418 3.54506 4.8027L2.70001 5.29059L4.16033 6.1337C4.59079 6.38223 4.73828 6.93266 4.48975 7.36313C4.24122 7.79359 3.69079 7.94108 3.26033 7.69255L1.8 6.84943ZM0.900002 11.256C0.402945 11.256 1.73039e-06 11.659 1.09685e-06 12.156L0 13.5359C-5.32156e-07 14.572 0.552737 15.5293 1.45 16.0474L2.64499 16.7373C3.07545 16.9858 3.62588 16.8383 3.87441 16.4079C4.12294 15.9774 3.97545 15.427 3.54499 15.1785L2.7 14.6906L4.33353 13.7475C4.76399 13.499 4.91148 12.9485 4.66295 12.5181C4.41442 12.0876 3.86399 11.9401 3.43353 12.1886L1.8 13.1318L1.8 12.156C1.8 11.659 1.39706 11.256 0.900002 11.256ZM6.06623 2.30788C6.31476 2.73834 6.86519 2.88583 7.29565 2.6373L8.14064 2.14944V3.93724C8.14064 4.4343 8.54359 4.83724 9.04064 4.83724C9.5377 4.83724 9.94064 4.4343 9.94064 3.93724L9.94064 2.14945L10.7856 2.6373C11.2161 2.88583 11.7665 2.73834 12.0151 2.30788C12.2636 1.87741 12.1161 1.32698 11.6856 1.07845L10.4906 0.388526C9.59338 -0.129509 8.48791 -0.129508 7.59064 0.388526L6.39565 1.07845C5.96519 1.32698 5.8177 1.87741 6.06623 2.30788ZM5.50521 17.3494C5.25668 17.7799 5.40416 18.3303 5.83463 18.5788L7.59064 19.5927C8.4879 20.1107 9.59338 20.1107 10.4906 19.5927L12.2467 18.5788C12.6771 18.3303 12.8246 17.7799 12.5761 17.3494C12.3276 16.9189 11.7771 16.7715 11.3467 17.02L9.94065 17.8318L9.94065 16.0471C9.94065 15.55 9.53771 15.1471 9.04065 15.1471C8.54359 15.1471 8.14065 15.55 8.14065 16.0471V17.8318L6.73463 17.02C6.30416 16.7715 5.75373 16.919 5.50521 17.3494ZM14.2067 3.5732C13.9581 4.00366 14.1056 4.55409 14.5361 4.80262L15.3813 5.29061L13.921 6.13373C13.4905 6.38226 13.343 6.93269 13.5916 7.36315C13.8401 7.79362 14.3905 7.94111 14.821 7.69258L16.2813 6.84947V8.14921C16.2813 8.64626 16.6842 9.04921 17.1813 9.04921C17.6783 9.04921 18.0813 8.64626 18.0813 8.14921L18.0813 6.4453C18.0813 5.40923 17.5285 4.45186 16.6313 3.93383L15.4361 3.24378C15.0056 2.99525 14.4552 3.14274 14.2067 3.5732ZM13.4183 12.5181C13.1698 12.9485 13.3173 13.499 13.7478 13.7475L15.3813 14.6906L14.5363 15.1785C14.1058 15.427 13.9583 15.9774 14.2069 16.4079C14.4554 16.8383 15.0058 16.9858 15.4363 16.7373L16.6313 16.0474C17.5285 15.5293 18.0813 14.572 18.0813 13.5359V12.156C18.0813 11.659 17.6783 11.256 17.1813 11.256C16.6842 11.256 16.2813 11.659 16.2813 12.156V13.1318L14.6478 12.1887C14.2173 11.9401 13.6669 12.0876 13.4183 12.5181Z" fill="var(--fill-0, #2F3438)"/>
<path fill-rule="evenodd" clip-rule="evenodd" d="M8.14999 12.3906V9.9906H9.94999V12.3906C9.94999 12.8877 9.54705 13.2906 9.04999 13.2906C8.55294 13.2906 8.14999 12.8877 8.14999 12.3906Z" fill="var(--fill-0, #2F3438)"/>
<path fill-rule="evenodd" clip-rule="evenodd" d="M11.5785 9.57001L9.5 10.77L8.6 9.21116L10.6785 8.01116C11.1089 7.76263 11.6594 7.91012 11.9079 8.34058C12.1564 8.77105 12.0089 9.32148 11.5785 9.57001Z" fill="var(--fill-0, #2F3438)"/>
<path fill-rule="evenodd" clip-rule="evenodd" d="M6.52152 9.57001L8.59998 10.77L9.49998 9.21116L7.42152 8.01116C6.99106 7.76263 6.44063 7.91012 6.1921 8.34059C5.94357 8.77105 6.09106 9.32148 6.52152 9.57001Z" fill="var(--fill-0, #2F3438)"/>
<path fill-rule="evenodd" clip-rule="evenodd" d="M8.14999 12.3906V9.9906H9.94999V12.3906C9.94999 12.8877 9.54705 13.2906 9.04999 13.2906C8.55294 13.2906 8.14999 12.8877 8.14999 12.3906Z" fill="var(--fill-0, #2F3438)"/>
</g>
</svg>
